<svg width="42" height="43" viewBox="0 0 42 43" fill="none" xmlns="http://www.w3.org/2000/svg">
<path d="M19.2214 22.3825L17.9496 22.3423L0.278198 21.5421L17.9496 20.7418L19.2214 20.6224L19.0612 20.4544L10.7732 11.4149L19.8531 19.6309C19.9083 19.6883 19.9669 19.7414 20.0294 19.7905C20.0294 19.3663 20.0294 18.9422 20.0696 18.5265L20.8698 0.855072L21.6701 18.5265C21.6701 18.9422 21.6701 19.3267 21.7181 19.7905L21.886 19.6303L31.0373 11.4149L22.7812 20.4544L22.621 20.6224C23.0451 20.6224 23.4692 20.6224 23.885 20.6704L41.5564 21.4706L23.885 22.2709L22.621 22.311L22.6216 22.3105C22.6707 22.373 22.7237 22.4316 22.7812 22.4868L31.0373 31.6385L21.9575 23.4148L21.7895 23.2547C21.7895 23.6788 21.7895 24.1029 21.7415 24.5264L20.9413 42.1979L20.141 24.5264C20.141 24.1023 20.141 23.6782 20.1009 23.2547L19.9251 23.4148L10.7734 31.6385L19.0374 22.5587L19.2214 22.3825Z" fill="#FF7676"/>
</svg>
